<?xml version="1.0" encoding="utf-8"?>
<!-- Generator: Adobe Illustrator 26.2.1, SVG Export Plug-In . SVG Version: 6.00 Build 0)  -->
<svg version="1.1" id="Layer_1" xmlns="http://www.w3.org/2000/svg" xmlns:xlink="http://www.w3.org/1999/xlink" x="0px" y="0px"
	 viewBox="0 0 180.2 53.4" style="enable-background:new 0 0 180.2 53.4;" xml:space="preserve">
<style type="text/css">
	.st0{enable-background:new    ;}
	.st1{fill:#1E1C21;}
	.st2{fill:#64B9CC;}
</style>
<g id="Group_556" transform="translate(-183.5 -46.777)">
	<g class="st0">
		<path class="st1" d="M268.9,87.5v-6.2h-5.8v6.2h-2.6V73.3h2.6v5.5h5.8v-5.5h2.6v14.2H268.9z"/>
		<path class="st1" d="M287.2,80.4c0,0.6,0,1.1-0.1,1.7c0,0.5-0.1,1-0.3,1.5c-0.1,0.5-0.3,0.9-0.5,1.4s-0.5,0.8-0.9,1.2
			c-0.5,0.5-1.2,1-1.9,1.2c-0.7,0.3-1.4,0.4-2.2,0.4s-1.5-0.1-2.2-0.4s-1.3-0.7-1.9-1.2c-0.4-0.4-0.7-0.8-0.9-1.2s-0.4-0.9-0.5-1.4
			c-0.1-0.5-0.2-1-0.3-1.5c0-0.5-0.1-1.1-0.1-1.7c0-0.6,0-1.1,0.1-1.7s0.1-1,0.3-1.5c0.1-0.5,0.3-0.9,0.5-1.4s0.5-0.8,0.9-1.2
			c0.5-0.5,1.2-1,1.9-1.2s1.4-0.4,2.2-0.4s1.5,0.1,2.2,0.4c0.7,0.3,1.3,0.7,1.9,1.2c0.4,0.4,0.7,0.8,0.9,1.2s0.4,0.9,0.5,1.4
			c0.1,0.5,0.2,1,0.3,1.5S287.2,79.8,287.2,80.4z M284.5,80.4c0-0.3,0-0.7,0-1c0-0.4-0.1-0.7-0.1-1.1c-0.1-0.4-0.2-0.7-0.3-1
			c-0.1-0.3-0.3-0.6-0.6-0.9c-0.3-0.3-0.6-0.5-1-0.7c-0.4-0.2-0.8-0.2-1.2-0.2s-0.8,0.1-1.2,0.2c-0.4,0.2-0.7,0.4-1,0.7
			c-0.2,0.3-0.4,0.5-0.6,0.9c-0.1,0.3-0.2,0.7-0.3,1c-0.1,0.4-0.1,0.7-0.1,1.1c0,0.4,0,0.7,0,1s0,0.7,0,1c0,0.4,0.1,0.7,0.1,1.1
			c0.1,0.4,0.2,0.7,0.3,1c0.1,0.3,0.3,0.6,0.6,0.9c0.3,0.3,0.6,0.5,1,0.7c0.4,0.2,0.8,0.2,1.2,0.2s0.8-0.1,1.2-0.2
			c0.4-0.2,0.7-0.4,1-0.7c0.2-0.3,0.4-0.5,0.6-0.9c0.1-0.3,0.2-0.7,0.3-1c0.1-0.4,0.1-0.7,0.1-1.1C284.5,81.1,284.5,80.7,284.5,80.4
			z"/>
		<path class="st1" d="M291.1,87.5V73.3h2.6v11.7h6.6v2.4H291.1z"/>
		<path class="st1" d="M303.5,87.5V73.3h2.6v14.2H303.5z"/>
		<path class="st1" d="M322,80.4c0,0.5,0,1,0,1.5s-0.1,1-0.2,1.5c-0.1,0.5-0.3,0.9-0.5,1.4c-0.2,0.4-0.5,0.9-0.9,1.2
			c-0.5,0.5-1,0.9-1.7,1.1c-0.7,0.3-1.4,0.4-2.2,0.4h-5.5V73.3h5.5c0.8,0,1.6,0.1,2.2,0.4s1.3,0.6,1.7,1.1c0.4,0.4,0.6,0.8,0.9,1.2
			c0.2,0.4,0.4,0.9,0.5,1.4c0.1,0.5,0.2,1,0.2,1.5S322,79.9,322,80.4z M319.3,80.4c0-0.3,0-0.7,0-1s-0.1-0.7-0.1-1.1
			c-0.1-0.4-0.2-0.7-0.3-1c-0.1-0.3-0.3-0.6-0.6-0.9c-0.2-0.2-0.5-0.4-0.9-0.6s-0.7-0.2-1.1-0.2h-2.9v9.5h2.9c0.4,0,0.8-0.1,1.1-0.2
			s0.6-0.3,0.9-0.6c0.3-0.3,0.4-0.5,0.6-0.9c0.1-0.3,0.2-0.7,0.3-1c0.1-0.4,0.1-0.7,0.1-1.1C319.3,81.1,319.3,80.7,319.3,80.4z"/>
		<path class="st1" d="M334.1,87.5l-0.9-2.7h-5.6l-0.9,2.7H324l5-14.2h2.8l5,14.2H334.1z M330.4,76.5l-2,6h4L330.4,76.5z"/>
		<path class="st1" d="M338.8,87.5V85l7.8-9.3h-7.7v-2.3h10.9v2.5l-7.8,9.3h7.9v2.3H338.8z"/>
		<path class="st1" d="M353.6,87.5V73.3h10.1v2.3h-7.5V79h6.6v2.3h-6.6v3.9h7.5v2.3H353.6z"/>
	</g>
	<g id="Group_356_00000057866029873290596040000014468477264070248113_">
		<path id="Path_1547_00000067229602974269806680000002796998337487409588_" class="st2" d="M225.8,80.6c-2.3-2.3-6.1-2.4-8.4-0.1
			c0,0-0.1,0.1-0.1,0.1c-2.4,2.3-2.4,6.1-0.1,8.5c0,0,0.1,0.1,0.1,0.1c2.3,2.4,6.1,2.4,8.5,0.1c0,0,0.1-0.1,0.1-0.1
			c2.3-2.3,2.3-6.1,0-8.5C225.9,80.6,225.9,80.6,225.8,80.6 M221.5,87.6c-1.5,0-2.7-1.2-2.7-2.7c0-1.5,1.2-2.7,2.7-2.7
			s2.7,1.2,2.7,2.7l0,0C224.2,86.3,223,87.6,221.5,87.6"/>
		<g id="Group_347_00000160903377865469948090000018444048527047843988_" transform="translate(183.5 46.777)">
			<path id="Path_1542_00000077296183509125677850000000314944510783273102_" class="st1" d="M26.7,46.9V26.7l-7.4,7.4v12h-12
				L0,53.4h26.7V46.9z"/>
			<path id="Path_1550_00000137823722603075811810000008827766625334270105_" class="st1" d="M53.5,20.2V0l-7.4,7.4v12h-12l-7.4,7.4
				h26.7V20.2z"/>
			<path id="Path_1549_00000114039067317365860780000007796995075705787283_" class="st1" d="M8.2,16.7v20.2l7.4-7.4v-12h12l7.4-7.4
				H8.2V16.7z"/>
		</g>
	</g>
</g>
</svg>
