<?xml version="1.0" encoding="utf-8"?>
<!-- Generator: Adobe Illustrator 26.2.1, SVG Export Plug-In . SVG Version: 6.00 Build 0)  -->
<svg version="1.1" id="Layer_1" xmlns="http://www.w3.org/2000/svg" xmlns:xlink="http://www.w3.org/1999/xlink" x="0px" y="0px"
	 viewBox="0 0 53.5 53.4" style="enable-background:new 0 0 53.5 53.4;" xml:space="preserve">
<style type="text/css">
	.st0{fill:#64B9CC;}
	.st1{fill:#1E1C21;}
</style>
<g id="Group_356">
	<path id="Path_1547" class="st0" d="M42.3,33.8c-2.3-2.3-6.1-2.4-8.4-0.1c0,0-0.1,0.1-0.1,0.1c-2.4,2.3-2.4,6.1-0.1,8.5
		c0,0,0.1,0.1,0.1,0.1c2.3,2.4,6.1,2.4,8.5,0.1c0,0,0.1-0.1,0.1-0.1c2.3-2.3,2.3-6.1,0-8.5C42.4,33.9,42.4,33.8,42.3,33.8 M38,40.8
		c-1.5,0-2.7-1.2-2.7-2.7s1.2-2.7,2.7-2.7s2.7,1.2,2.7,2.7l0,0C40.7,39.6,39.5,40.8,38,40.8"/>
	<g id="Group_347" transform="translate(183.5 46.777)">
		<path id="Path_1542" class="st1" d="M-156.8,0.2v-20.2l-7.4,7.4v12h-12l-7.4,7.4h26.7V0.2z"/>
		<path id="Path_1550" class="st1" d="M-130-26.6v-20.2l-7.4,7.4v12h-12l-7.4,7.4h26.7V-26.6z"/>
		<path id="Path_1549" class="st1" d="M-175.3-30.1v20.2l7.4-7.4v-12h12l7.4-7.4h-26.7V-30.1z"/>
	</g>
</g>
</svg>
