<?xml version="1.0" encoding="utf-8"?>
<!-- Generator: Adobe Illustrator 26.2.1, SVG Export Plug-In . SVG Version: 6.00 Build 0)  -->
<svg version="1.1" id="Layer_1" xmlns="http://www.w3.org/2000/svg" xmlns:xlink="http://www.w3.org/1999/xlink" x="0px" y="0px"
	 viewBox="0 0 29.2 23.1" style="enable-background:new 0 0 29.2 23.1;" xml:space="preserve">
<style type="text/css">
	.st0{fill:#1C1F38;}
	.st1{fill:none;stroke:#1C1F38;}
	.st2{fill:#EA5259;}
</style>
<g id="Group_729" transform="translate(-339.891 -37.635)">
	<g id="Group_728">
		<path id="Icon_map-roofing-contractor" class="st0" d="M344.7,39.5h3.5l0,2.1l-3.5,3.1V39.5z M354.4,38.3l-13.8,12.2l1.5,1.6
			l12.4-11l12.4,11l1.5-1.6l-13.8-12.2L354.4,38.3L354.4,38.3z"/>
		<path id="Icon_map-roofing-contractor_-_Outline" class="st0" d="M354.5,37.6l0.4,0.3l14.2,12.5l-2.1,2.4l-12.5-11l-12.5,11
			l-2.1-2.4l14.3-12.6L354.5,37.6z M367.7,50.6L354.5,39l-13.2,11.6l0.8,0.9l12.4-10.9l12.4,10.9L367.7,50.6z M344.2,39h4.5l0,2.8
			l-4.5,4V39z M347.7,40h-2.5v3.6l2.5-2.2L347.7,40z"/>
		<g id="Rectangle_2665" transform="translate(344.98 46.701)">
			<rect x="0" y="0" class="st0" width="3" height="14"/>
			<rect x="0.5" y="0.5" class="st1" width="2" height="13"/>
		</g>
		<g id="Rectangle_2667" transform="translate(363.98 57.701) rotate(90)">
			<rect x="-8" y="8" transform="matrix(2.535182e-06 1 -1 2.535182e-06 11.001 8.001)" class="st0" width="19" height="3"/>
			<rect x="-7.5" y="8.5" transform="matrix(2.535182e-06 1 -1 2.535182e-06 11.001 8.001)" class="st1" width="18" height="2"/>
		</g>
		<g id="Rectangle_2666" transform="translate(360.98 46.701)">
			<rect x="0" y="0" class="st0" width="3" height="14"/>
			<rect x="0.5" y="0.5" class="st1" width="2" height="13"/>
		</g>
	</g>
	<path id="Icon_map-roofing-contractor_-_Outline-2" class="st2" d="M344.2,39h4.5l0,2.8l-4.5,4V39z"/>
</g>
</svg>
